<mxfile host="app.diagrams.net" modified="2021-01-05T16:13:22.557Z" agent="5.0 (Windows NT 10.0; Win64; x64) AppleWebKit/537.36 (KHTML, like Gecko) Chrome/87.0.4280.88 Safari/537.36 Edg/87.0.664.66" etag="loGopaVnH_D72T9AwmdA" version="14.1.8" type="github">
  <diagram id="kgpKYQtTHZ0yAKxKKP6v" name="Page-1">
    <mxGraphModel dx="1209" dy="759" grid="1" gridSize="10" guides="1" tooltips="1" connect="1" arrows="1" fold="1" page="1" pageScale="1" pageWidth="850" pageHeight="1100" math="0" shadow="0">
      <root>
        <mxCell id="0" />
        <mxCell id="1" parent="0" />
        <mxCell id="TYt9g1yqvVfg4qbYG6r0-8" style="edgeStyle=orthogonalEdgeStyle;rounded=0;orthogonalLoop=1;jettySize=auto;html=1;" edge="1" parent="1" source="TYt9g1yqvVfg4qbYG6r0-1" target="TYt9g1yqvVfg4qbYG6r0-4">
          <mxGeometry relative="1" as="geometry" />
        </mxCell>
        <mxCell id="TYt9g1yqvVfg4qbYG6r0-1" value="" style="rounded=0;whiteSpace=wrap;html=1;" vertex="1" parent="1">
          <mxGeometry x="365" y="40" width="120" height="60" as="geometry" />
        </mxCell>
        <mxCell id="TYt9g1yqvVfg4qbYG6r0-2" value="DeepSleep (by interrupt)" style="text;html=1;strokeColor=none;fillColor=none;align=center;verticalAlign=middle;whiteSpace=wrap;rounded=0;" vertex="1" parent="1">
          <mxGeometry x="385" y="40" width="80" height="60" as="geometry" />
        </mxCell>
        <mxCell id="TYt9g1yqvVfg4qbYG6r0-34" style="edgeStyle=orthogonalEdgeStyle;rounded=0;orthogonalLoop=1;jettySize=auto;html=1;fillColor=#1ba1e2;strokeColor=#006EAF;" edge="1" parent="1" source="TYt9g1yqvVfg4qbYG6r0-4" target="TYt9g1yqvVfg4qbYG6r0-21">
          <mxGeometry relative="1" as="geometry" />
        </mxCell>
        <mxCell id="TYt9g1yqvVfg4qbYG6r0-35" style="edgeStyle=orthogonalEdgeStyle;rounded=0;orthogonalLoop=1;jettySize=auto;html=1;entryX=1;entryY=0.5;entryDx=0;entryDy=0;fillColor=#f8cecc;strokeColor=#b85450;" edge="1" parent="1" source="TYt9g1yqvVfg4qbYG6r0-4" target="TYt9g1yqvVfg4qbYG6r0-20">
          <mxGeometry relative="1" as="geometry">
            <mxPoint x="310" y="190" as="targetPoint" />
          </mxGeometry>
        </mxCell>
        <mxCell id="TYt9g1yqvVfg4qbYG6r0-4" value="" style="rounded=0;whiteSpace=wrap;html=1;" vertex="1" parent="1">
          <mxGeometry x="365" y="160" width="120" height="60" as="geometry" />
        </mxCell>
        <mxCell id="TYt9g1yqvVfg4qbYG6r0-7" value="Motion Detected?" style="text;html=1;strokeColor=none;fillColor=none;align=center;verticalAlign=middle;whiteSpace=wrap;rounded=0;" vertex="1" parent="1">
          <mxGeometry x="405" y="180" width="40" height="20" as="geometry" />
        </mxCell>
        <mxCell id="TYt9g1yqvVfg4qbYG6r0-15" value="" style="rounded=0;whiteSpace=wrap;html=1;" vertex="1" parent="1">
          <mxGeometry x="365" y="330" width="120" height="60" as="geometry" />
        </mxCell>
        <mxCell id="TYt9g1yqvVfg4qbYG6r0-19" style="edgeStyle=orthogonalEdgeStyle;rounded=0;orthogonalLoop=1;jettySize=auto;html=1;fillColor=#f8cecc;strokeColor=#b85450;" edge="1" parent="1" source="TYt9g1yqvVfg4qbYG6r0-16">
          <mxGeometry relative="1" as="geometry">
            <mxPoint x="425" y="220" as="targetPoint" />
          </mxGeometry>
        </mxCell>
        <mxCell id="TYt9g1yqvVfg4qbYG6r0-16" value="DeepSleep&amp;nbsp; &amp;nbsp; &amp;nbsp; ( N seconds&amp;nbsp; )" style="text;html=1;strokeColor=none;fillColor=none;align=center;verticalAlign=middle;whiteSpace=wrap;rounded=0;" vertex="1" parent="1">
          <mxGeometry x="385" y="330" width="80" height="60" as="geometry" />
        </mxCell>
        <mxCell id="TYt9g1yqvVfg4qbYG6r0-39" style="edgeStyle=orthogonalEdgeStyle;rounded=0;orthogonalLoop=1;jettySize=auto;html=1;fillColor=#f8cecc;strokeColor=#b85450;entryX=0;entryY=0.5;entryDx=0;entryDy=0;" edge="1" parent="1" source="TYt9g1yqvVfg4qbYG6r0-20" target="TYt9g1yqvVfg4qbYG6r0-15">
          <mxGeometry relative="1" as="geometry">
            <mxPoint x="180" y="370" as="targetPoint" />
            <Array as="points">
              <mxPoint x="170" y="190" />
              <mxPoint x="170" y="360" />
            </Array>
          </mxGeometry>
        </mxCell>
        <mxCell id="TYt9g1yqvVfg4qbYG6r0-20" value="True" style="text;html=1;strokeColor=none;fillColor=none;align=center;verticalAlign=middle;whiteSpace=wrap;rounded=0;" vertex="1" parent="1">
          <mxGeometry x="260" y="180" width="40" height="20" as="geometry" />
        </mxCell>
        <mxCell id="TYt9g1yqvVfg4qbYG6r0-38" style="edgeStyle=orthogonalEdgeStyle;rounded=0;orthogonalLoop=1;jettySize=auto;html=1;entryX=0.5;entryY=0;entryDx=0;entryDy=0;fillColor=#1ba1e2;strokeColor=#006EAF;" edge="1" parent="1" source="TYt9g1yqvVfg4qbYG6r0-21" target="TYt9g1yqvVfg4qbYG6r0-41">
          <mxGeometry relative="1" as="geometry">
            <mxPoint x="659.9999999999998" y="260" as="targetPoint" />
          </mxGeometry>
        </mxCell>
        <mxCell id="TYt9g1yqvVfg4qbYG6r0-21" value="False" style="text;html=1;strokeColor=#006EAF;fillColor=#1ba1e2;align=center;verticalAlign=middle;whiteSpace=wrap;rounded=0;fontColor=#ffffff;" vertex="1" parent="1">
          <mxGeometry x="545" y="180" width="40" height="20" as="geometry" />
        </mxCell>
        <mxCell id="TYt9g1yqvVfg4qbYG6r0-68" style="edgeStyle=orthogonalEdgeStyle;rounded=0;orthogonalLoop=1;jettySize=auto;html=1;exitX=0;exitY=0.5;exitDx=0;exitDy=0;entryX=1;entryY=0.5;entryDx=0;entryDy=0;fillColor=#1ba1e2;strokeColor=#006EAF;" edge="1" parent="1" source="TYt9g1yqvVfg4qbYG6r0-41" target="TYt9g1yqvVfg4qbYG6r0-49">
          <mxGeometry relative="1" as="geometry">
            <mxPoint x="580" y="360" as="targetPoint" />
          </mxGeometry>
        </mxCell>
        <mxCell id="TYt9g1yqvVfg4qbYG6r0-69" style="edgeStyle=orthogonalEdgeStyle;rounded=0;orthogonalLoop=1;jettySize=auto;html=1;entryX=0;entryY=0.5;entryDx=0;entryDy=0;" edge="1" parent="1" source="TYt9g1yqvVfg4qbYG6r0-41" target="TYt9g1yqvVfg4qbYG6r0-50">
          <mxGeometry relative="1" as="geometry" />
        </mxCell>
        <mxCell id="TYt9g1yqvVfg4qbYG6r0-41" value="Verify consistent stationary state for N Seconds" style="rounded=0;whiteSpace=wrap;html=1;" vertex="1" parent="1">
          <mxGeometry x="600" y="330" width="120" height="60" as="geometry" />
        </mxCell>
        <mxCell id="TYt9g1yqvVfg4qbYG6r0-70" style="edgeStyle=orthogonalEdgeStyle;rounded=0;orthogonalLoop=1;jettySize=auto;html=1;fillColor=#1ba1e2;strokeColor=#006EAF;entryX=0.5;entryY=0;entryDx=0;entryDy=0;" edge="1" parent="1" source="TYt9g1yqvVfg4qbYG6r0-49" target="TYt9g1yqvVfg4qbYG6r0-52">
          <mxGeometry relative="1" as="geometry">
            <mxPoint x="550" y="400" as="targetPoint" />
          </mxGeometry>
        </mxCell>
        <mxCell id="TYt9g1yqvVfg4qbYG6r0-49" value="True" style="text;html=1;strokeColor=#006EAF;fillColor=#1ba1e2;align=center;verticalAlign=middle;whiteSpace=wrap;rounded=0;fontColor=#ffffff;" vertex="1" parent="1">
          <mxGeometry x="530" y="350" width="40" height="20" as="geometry" />
        </mxCell>
        <mxCell id="TYt9g1yqvVfg4qbYG6r0-71" style="edgeStyle=orthogonalEdgeStyle;rounded=0;orthogonalLoop=1;jettySize=auto;html=1;fillColor=#f8cecc;strokeColor=#b85450;" edge="1" parent="1" source="TYt9g1yqvVfg4qbYG6r0-50" target="TYt9g1yqvVfg4qbYG6r0-15">
          <mxGeometry relative="1" as="geometry">
            <mxPoint x="810" y="260" as="targetPoint" />
            <Array as="points">
              <mxPoint x="770" y="260" />
              <mxPoint x="520" y="260" />
              <mxPoint x="520" y="360" />
            </Array>
          </mxGeometry>
        </mxCell>
        <mxCell id="TYt9g1yqvVfg4qbYG6r0-50" value="False" style="text;html=1;strokeColor=#b85450;fillColor=#f8cecc;align=center;verticalAlign=middle;whiteSpace=wrap;rounded=0;" vertex="1" parent="1">
          <mxGeometry x="750" y="350" width="40" height="20" as="geometry" />
        </mxCell>
        <mxCell id="TYt9g1yqvVfg4qbYG6r0-73" style="edgeStyle=orthogonalEdgeStyle;rounded=0;orthogonalLoop=1;jettySize=auto;html=1;" edge="1" parent="1" source="TYt9g1yqvVfg4qbYG6r0-52" target="TYt9g1yqvVfg4qbYG6r0-54">
          <mxGeometry relative="1" as="geometry">
            <Array as="points">
              <mxPoint x="550" y="570" />
            </Array>
          </mxGeometry>
        </mxCell>
        <mxCell id="TYt9g1yqvVfg4qbYG6r0-52" value="" style="rounded=0;whiteSpace=wrap;html=1;" vertex="1" parent="1">
          <mxGeometry x="490" y="450" width="120" height="60" as="geometry" />
        </mxCell>
        <mxCell id="TYt9g1yqvVfg4qbYG6r0-53" value="Vehicle parked" style="text;html=1;strokeColor=none;fillColor=none;align=center;verticalAlign=middle;whiteSpace=wrap;rounded=0;" vertex="1" parent="1">
          <mxGeometry x="512.5" y="470" width="75" height="20" as="geometry" />
        </mxCell>
        <mxCell id="TYt9g1yqvVfg4qbYG6r0-57" style="edgeStyle=orthogonalEdgeStyle;rounded=0;orthogonalLoop=1;jettySize=auto;html=1;fillColor=#fff2cc;strokeColor=#d6b656;entryX=0;entryY=0.5;entryDx=0;entryDy=0;" edge="1" parent="1" source="TYt9g1yqvVfg4qbYG6r0-54" target="TYt9g1yqvVfg4qbYG6r0-1">
          <mxGeometry relative="1" as="geometry">
            <mxPoint x="100" y="70" as="targetPoint" />
            <Array as="points">
              <mxPoint x="90" y="570" />
              <mxPoint x="90" y="70" />
            </Array>
          </mxGeometry>
        </mxCell>
        <mxCell id="TYt9g1yqvVfg4qbYG6r0-54" value="" style="rounded=0;whiteSpace=wrap;html=1;" vertex="1" parent="1">
          <mxGeometry x="290" y="430" width="125" height="280" as="geometry" />
        </mxCell>
        <mxCell id="TYt9g1yqvVfg4qbYG6r0-55" value="Obtain GPS variables&amp;nbsp;&lt;br&gt;&lt;br&gt;Activate GSM&lt;br&gt;&lt;br&gt;Post variables to backend&lt;br&gt;&lt;br&gt;Update LCD with current time&amp;nbsp;" style="text;html=1;strokeColor=none;fillColor=none;align=center;verticalAlign=middle;whiteSpace=wrap;rounded=0;" vertex="1" parent="1">
          <mxGeometry x="314.38" y="550" width="75" height="20" as="geometry" />
        </mxCell>
      </root>
    </mxGraphModel>
  </diagram>
</mxfile>
